
        <svg xmlns="https://www.w3.org/2000/svg" xmlns:xlink="https://www.w3.org/1999/xlink" version="1.1" width="3159.8120459757106" height="1013.6664876942061" viewBox="0 -58.25149075814647 3159.8120459757106 1013.6664876942061">
			
			<g transform="scale(7.990602298785523) translate(10, 10)">
				<defs id="SvgjsDefs4458"><linearGradient id="SvgjsLinearGradient4463"><stop id="SvgjsStop4464" stop-color="#2d388a" offset="0"/><stop id="SvgjsStop4465" stop-color="#00aeef" offset="1"/></linearGradient></defs><g id="SvgjsG4459" featureKey="nYIUkx-0" transform="matrix(1.3561478956265391,0,0,1.3561478956265391,-10.02847245747446,-25.31622884407519)" fill="#fff"><path xmlns="https://www.w3.org/2000/svg" d="M55.896,13.291c-17.979,0-32.97,12.996-36.099,30.085C9.693,52.243,5.467,60.502,8.216,66.067  c1.919,3.884,6.927,5.838,14.053,5.838c1.275,0,2.637-0.081,4.043-0.206c6.688,9.094,17.456,15.01,29.585,15.01  c20.241,0,36.709-16.468,36.709-36.709S76.138,13.291,55.896,13.291z M81.501,26.594c-2.583,1.1-5.547,2.022-8.808,2.729  c-2.171-5.789-5.231-10.341-8.816-13.096C70.767,17.855,76.872,21.535,81.501,26.594z M56.824,15.341  c5.605,0.555,10.659,6.107,13.85,14.391c-4.299,0.794-9.004,1.236-13.85,1.287V15.341z M47.994,16.209  c-3.601,2.768-6.675,7.35-8.858,13.127c-3.274-0.708-6.248-1.638-8.843-2.743C34.938,21.516,41.072,17.828,47.994,16.209z   M54.824,15.356v15.66c-4.822-0.058-9.494-0.501-13.761-1.291C44.192,21.507,49.166,15.98,54.824,15.356z M21.231,48.251  c0.379-7.582,3.205-14.526,7.697-20.069c2.772,1.237,5.989,2.269,9.537,3.05c-1.659,5.026-2.675,10.823-2.837,17.02H21.231z   M38.042,67.477c-3.866,1.031-7.501,1.731-10.793,2.093c-3.776-5.511-6.004-12.16-6.056-19.318h14.414  C35.631,56.481,36.51,62.345,38.042,67.477z M10.009,65.181c-2.099-4.248,1.473-11.29,9.352-18.704  c-0.111,1.16-0.173,2.335-0.173,3.523c0,7.274,2.136,14.055,5.8,19.766C17.278,70.269,11.769,68.743,10.009,65.181z M28.633,71.441  c3.098-0.406,6.452-1.088,10.024-2.054c2.182,6.357,5.408,11.415,9.265,14.387C40.168,81.943,33.414,77.508,28.633,71.441z   M56.824,84.686v-8.102c-0.345,0.446-0.782,0.825-1.299,1.097l-0.701,0.369v6.589c-5.908-0.675-11.112-6.869-14.213-15.805  c1.08-0.316,2.176-0.656,3.289-1.021l0.441,0.84c0.176,0.334,0.521,0.534,0.885,0.534c0.081,0,0.163-0.01,0.245-0.03l2.435-0.615  l3.563,6.756c0.18,0.34,0.526,0.533,0.886,0.533c0.157,0,0.316-0.037,0.465-0.115l1.308-0.688c0.327-0.172,0.532-0.511,0.534-0.881  l0.031-7.334c0.825-0.239,1.57-0.537,2.352-0.948l2.982-1.569l3.39,15.982c0.065,0.307,0.271,0.565,0.554,0.698  c0.135,0.063,0.28,0.095,0.425,0.095c0.16,0,0.32-0.038,0.466-0.115l4.063-2.139c0.291-0.153,0.487-0.438,0.527-0.766l2.408-19.982  l3.538-1.862c1.209-0.636,2.562-1.966,3.618-3.557c0.849-1.278,1.731-3.046,1.116-4.213c-0.639-1.213-2.579-1.468-4.095-1.468  c-1.521,0-3.674,0.277-5.156,1.058L67.511,49.8l-17.835-9.332c-0.291-0.152-0.639-0.152-0.93,0.001l-4.063,2.138  c-0.277,0.146-0.47,0.413-0.521,0.722c-0.052,0.31,0.046,0.625,0.262,0.852l11.254,11.847l-2.982,1.569  c-0.794,0.418-1.47,0.871-2.146,1.428l-5.99-4.078c-0.305-0.208-0.701-0.23-1.027-0.06l-1.309,0.688  c-0.489,0.257-0.678,0.861-0.421,1.351l3.512,6.688l-1.887,1.658c-0.21,0.185-0.313,0.443-0.325,0.709  c-1.047,0.34-2.081,0.658-3.101,0.954c-1.498-4.975-2.37-10.674-2.394-16.682h8.445l-1.9-2h-6.524  c0.16-6.083,1.152-11.755,2.76-16.623c4.477,0.851,9.38,1.329,14.437,1.389v6.759l2,1.047v-7.804  c5.084-0.053,10.025-0.531,14.537-1.386c1.251,3.74,2.134,7.959,2.551,12.472c0.656-0.081,1.326-0.128,1.998-0.133  c-0.418-4.616-1.299-8.917-2.553-12.75c3.536-0.78,6.75-1.805,9.51-3.035c4.491,5.541,7.316,12.484,7.694,20.064h-7.35  c0.138,0.63,0.161,1.295,0.049,2H90.6c-0.061,8.444-3.153,16.178-8.239,22.172c-2.587-1.106-5.58-2.058-8.872-2.793l-0.24,1.993  c2.828,0.642,5.418,1.444,7.695,2.368C74.821,80.38,66.291,84.436,56.824,84.686z M57.517,55.059L46.784,43.761l2.429-1.278  l16.146,8.449L57.517,55.059z M71.813,49.795c0.94-0.494,2.639-0.827,4.225-0.827c1.36,0,2.099,0.247,2.305,0.396  c0.026,0.903-1.948,4.059-3.876,5.072l-3.997,2.104c-0.002,0.001-0.004,0.001-0.006,0.002l-10.198,5.367  c-0.001,0-0.001,0.001-0.002,0.001l-4.15,2.185c-0.791,0.417-1.502,0.688-2.375,0.91l-7.692,1.944l-0.354-1.008l5.838-5.132  c0.677-0.595,1.304-1.026,2.096-1.442L71.813,49.795z M69.709,59.199l-2.18,18.091l-2.43,1.278l-3.232-15.243L69.709,59.199z   M52.691,67.332l-0.025,5.944l-2.764-5.239L52.691,67.332z M46.859,62.252l-2.715-5.17l4.844,3.298L46.859,62.252z"/></g><g id="SvgjsG4460" featureKey="PXhRQw-0" transform="matrix(1.907265085220017,0,0,1.907265085220017,139.85564067603153,25.51004566910936)" fill="#fff"><path d="M3.42 13.16 l0 6.84 l-2.82 0 l0 -14.5 l3.06 0 l1.58 6.12 l1.58 -6.12 l3.08 0 l0 14.5 l-2.82 0 l0 -6.84 l-1.84 5.8 z M13.879999999999999 18.2 l-0.26 1.8 l-2.92 0 l2.62 -14.5 l3.1 0 l2.62 14.5 l-2.92 0 l-0.26 -1.8 l-1.98 0 z M14.2 15.9 l1.34 0 l-0.66 -5.14 z M19.700000000000003 7.26 c0 -0.53334 0.14334 -0.96 0.43 -1.28 s0.71666 -0.48 1.29 -0.48 l4.14 0 l0.5 2.7 l-3.18 0 c-0.17334 0 -0.26 0.09334 -0.26 0.28 l0 8.6 c0 0.18666 0.08666 0.28 0.26 0.28 l1.32 0 l0 -5.72 l2.82 0 l0 8.36 l-5.06 0 c-0.84 0 -1.4267 -0.17334 -1.76 -0.52 s-0.5 -0.92 -0.5 -1.72 l0 -10.5 z M28.160000000000004 5.5 l2.76 0 l1.48 5.82 l0 -5.82 l2.98 0 l0 14.5 l-2.98 0 l-1.56 -6.06 l0 6.06 l-2.68 0 l0 -14.5 z M39.760000000000005 8.04 c-0.17334 0 -0.26 0.09334 -0.26 0.28 l0 8.84 c0 0.10666 0.01666 0.18332 0.05 0.22998 s0.11 0.07 0.23 0.07 l1.1 0 c0.12 0 0.19666 -0.02334 0.23 -0.07 s0.05 -0.12332 0.05 -0.22998 l0 -8.84 c0 -0.18666 -0.08666 -0.28 -0.26 -0.28 l-1.14 0 z M44.1 17.94 c0 0.28 -0.03334 0.54334 -0.1 0.79 s-0.18 0.46332 -0.34 0.64998 s-0.37334 0.33666 -0.64 0.45 s-0.6 0.17 -1 0.17 l-3.36 0 c-0.4 0 -0.73334 -0.05666 -1 -0.17 s-0.48 -0.26334 -0.64 -0.45 s-0.27334 -0.40332 -0.34 -0.64998 s-0.1 -0.51 -0.1 -0.79 l0 -10.56 c0 -0.57334 0.15666 -1.03 0.47 -1.37 s0.81 -0.51 1.49 -0.51 l3.6 0 c0.68 0 1.1767 0.17 1.49 0.51 s0.47 0.79666 0.47 1.37 l0 10.56 z M50.300000000000004 5.5 l2.94 0 l-2.68 14.5 l-3.02 0 l-2.68 -14.5 l2.94 0 l0.26 1.86 l0.98 7.5 l1 -7.54 z M55.480000000000004 18.2 l-0.26 1.8 l-2.92 0 l2.62 -14.5 l3.1 0 l2.62 14.5 l-2.92 0 l-0.26 -1.8 l-1.98 0 z M55.800000000000004 15.9 l1.34 0 l-0.66 -5.14 z M71.44 20 l-2.96 0 l0 -5.8 l-1.58 0 l0 5.8 l-2.96 0 l0 -14.5 l2.96 0 l0 6.2 l1.58 0 l0 -6.2 l2.96 0 l0 14.5 z M75.82000000000001 8.04 c-0.17334 0 -0.26 0.09334 -0.26 0.28 l0 8.84 c0 0.10666 0.01666 0.18332 0.05 0.22998 s0.11 0.07 0.23 0.07 l1.1 0 c0.12 0 0.19666 -0.02334 0.23 -0.07 s0.05 -0.12332 0.05 -0.22998 l0 -8.84 c0 -0.18666 -0.08666 -0.28 -0.26 -0.28 l-1.14 0 z M80.16000000000001 17.94 c0 0.28 -0.03334 0.54334 -0.1 0.79 s-0.18 0.46332 -0.34 0.64998 s-0.37334 0.33666 -0.64 0.45 s-0.6 0.17 -1 0.17 l-3.36 0 c-0.4 0 -0.73334 -0.05666 -1 -0.17 s-0.48 -0.26334 -0.64 -0.45 s-0.27334 -0.40332 -0.34 -0.64998 s-0.1 -0.51 -0.1 -0.79 l0 -10.56 c0 -0.57334 0.15666 -1.03 0.47 -1.37 s0.81 -0.51 1.49 -0.51 l3.6 0 c0.68 0 1.1767 0.17 1.49 0.51 s0.47 0.79666 0.47 1.37 l0 10.56 z M81.36 5.5 l2.98 0 l0 11.8 l2.92 0 l-0.5 2.7 l-5.4 0 l0 -14.5 z M88.16 5.5 l2.9 0 l0 14.5 l-2.9 0 l0 -14.5 z M95.14 8.04 l0 9.42 l1.36 0 c0.12 0 0.19666 -0.02334 0.23 -0.07 s0.05 -0.12332 0.05 -0.22998 l0 -8.84 c0 -0.18666 -0.08666 -0.28 -0.26 -0.28 l-1.38 0 z M99.66 17.759999999999998 c0 0.8 -0.16666 1.3733 -0.5 1.72 s-0.92 0.52 -1.76 0.52 l-5.14 0 l0 -14.5 l5.68 0 c0.57334 0 1.0033 0.16 1.29 0.48 s0.43 0.74666 0.43 1.28 l0 10.5 z M103.49999999999999 18.2 l-0.26 1.8 l-2.92 0 l2.62 -14.5 l3.1 0 l2.62 14.5 l-2.92 0 l-0.26 -1.8 l-1.98 0 z M103.82 15.9 l1.34 0 l-0.66 -5.14 z M113.49999999999999 20 l-3.06 0 l0 -3.68 l-2.78 -10.82 l3 0 l1.3 6.84 l1.32 -6.84 l3 0 l-2.78 10.82 l0 3.68 z M117.71999999999997 20 l-0.51996 -2.7 l3.12 0 c0.22666 0 0.34 -0.1 0.34 -0.3 l0 -2.64 c0 -0.2 -0.04 -0.32 -0.12 -0.36 s-0.22 -0.06 -0.42 -0.06 l-1.5 0 c-0.21334 0 -0.41668 -0.01666 -0.61002 -0.05 s-0.36668 -0.11 -0.52002 -0.23 s-0.27334 -0.28666 -0.36 -0.5 s-0.13 -0.5 -0.13 -0.86 l0 -4.92 c0 -0.57334 0.15666 -1.03 0.47 -1.37 s0.81 -0.51 1.49 -0.51 l4 0 l0.5 2.7 l-3.28 0 c-0.24 0 -0.36 0.10666 -0.36 0.32 l0 2.64 c0 0.14666 0.03666 0.24666 0.11 0.3 s0.18334 0.08 0.33 0.08 l1.82 0 c0.46666 0 0.82332 0.11 1.07 0.33 s0.37 0.60334 0.37 1.15 l0 4.78 c0 0.8 -0.16334 1.3667 -0.49 1.7 s-0.90332 0.5 -1.73 0.5 l-3.58 0 z"/></g>
			</g>
		</svg>
	